<svg width="10" height="10" viewBox="0 0 10 10" fill="none" xmlns="http://www.w3.org/2000/svg">
<path d="M0.509127 0.509109C0.743442 0.274795 1.12334 0.274796 1.35766 0.509111L5.00005 4.15152L8.64246 0.509125C8.87678 0.274811 9.25668 0.274812 9.49099 0.509127C9.7253 0.743442 9.7253 1.12334 9.49099 1.35766L5.84858 5.00005L9.49097 8.64247C9.72529 8.87678 9.72529 9.25668 9.49097 9.491C9.25666 9.72531 8.87676 9.72531 8.64244 9.491L5.00005 5.84858L1.35764 9.49097C1.12332 9.72529 0.743423 9.72529 0.509109 9.49097C0.274795 9.25666 0.274796 8.87676 0.509111 8.64244L4.15152 5.00005L0.509125 1.35764C0.274811 1.12332 0.274812 0.743423 0.509127 0.509109Z" fill="#99A2AD"/>
</svg>
