<svg width="10" height="10" viewBox="0 0 10 10" fill="none" xmlns="http://www.w3.org/2000/svg">
<path d="M5.00002 0.5C5.24854 0.5 5.45 0.701463 5.45 0.94998L5.45 4.55L9.05002 4.55002C9.29854 4.55002 9.5 4.75149 9.5 5C9.5 5.24851 9.29854 5.44998 9.05002 5.44998L5.45 5.4495L5.45 9.05006C5.45 9.29858 5.24854 9.50004 5.00002 9.50004C4.7515 9.50004 4.55004 9.29858 4.55004 9.05006L4.55 5.4495L0.949975 5.44998C0.701461 5.44998 0.5 5.24851 0.5 5C0.5 4.75149 0.701461 4.55002 0.949975 4.55002L4.55 4.55L4.55004 0.94998C4.55004 0.701463 4.7515 0.5 5.00002 0.5Z" fill="#99A2AD"/>
</svg>
