<svg width="16" height="16" viewBox="0 0 16 16" fill="none" xmlns="http://www.w3.org/2000/svg">
<path fill-rule="evenodd" clip-rule="evenodd" d="M8.15449 2.04223C8.05407 2.0096 7.9459 2.0096 7.84548 2.04223C7.83444 2.04582 7.78769 2.06224 7.66373 2.16747C7.53308 2.27839 7.37236 2.43828 7.1161 2.69454L2.6447 7.16595C2.3312 7.47945 2.2643 7.55317 2.2184 7.62807C2.16814 7.71008 2.1311 7.7995 2.10865 7.89303C2.08814 7.97845 2.08332 8.07789 2.08332 8.52124V12.6667C2.08332 13.0291 2.0839 13.2558 2.09786 13.4266C2.1111 13.5886 2.13255 13.6333 2.13782 13.6437C2.18575 13.7377 2.26224 13.8142 2.35633 13.8622C2.36667 13.8674 2.41134 13.8889 2.5734 13.9021C2.74421 13.9161 2.97091 13.9167 3.33332 13.9167H5.58332V11.25C5.58332 9.9153 6.6653 8.83333 7.99999 8.83333C9.33467 8.83333 10.4167 9.9153 10.4167 11.25V13.9167H12.6667C13.0291 13.9167 13.2558 13.9161 13.4266 13.9021C13.5886 13.8889 13.6333 13.8674 13.6436 13.8622C13.7377 13.8142 13.8142 13.7377 13.8622 13.6437C13.8674 13.6333 13.8889 13.5886 13.9021 13.4266C13.9161 13.2558 13.9167 13.0291 13.9167 12.6667V8.52124C13.9167 8.07789 13.9118 7.97845 13.8913 7.89304C13.8689 7.7995 13.8318 7.71008 13.7816 7.62807C13.7357 7.55317 13.6688 7.47945 13.3553 7.16595L8.88387 2.69454C8.62761 2.43828 8.4669 2.27839 8.33624 2.16747C8.21229 2.06224 8.16554 2.04582 8.15449 2.04223ZM7.38195 0.615648C7.78364 0.485132 8.21633 0.485132 8.61802 0.615649C8.89239 0.704797 9.1121 0.858499 9.30701 1.02396C9.49004 1.17935 9.69421 1.38353 9.9249 1.61425L14.4159 6.10529C14.4317 6.12105 14.4473 6.13663 14.4628 6.15206C14.7053 6.39418 14.9099 6.5985 15.0605 6.84432C15.193 7.06055 15.2907 7.29628 15.3499 7.54286C15.4172 7.8232 15.417 8.11238 15.4167 8.45504C15.4167 8.47689 15.4167 8.49895 15.4167 8.52124V12.6944C15.4167 13.0207 15.4167 13.3094 15.3971 13.5487C15.3763 13.8036 15.3296 14.0676 15.1987 14.3246C15.0069 14.701 14.701 15.0069 14.3246 15.1987C14.0676 15.3296 13.8035 15.3763 13.5487 15.3971C13.3094 15.4167 13.0207 15.4167 12.6944 15.4167H9.82387C9.32283 15.4167 8.91665 15.0105 8.91665 14.5094V11.25C8.91665 10.7437 8.50625 10.3333 7.99999 10.3333C7.49372 10.3333 7.08332 10.7437 7.08332 11.25V14.5094C7.08332 15.0105 6.67714 15.4167 6.1761 15.4167H3.30554C2.97929 15.4167 2.69054 15.4167 2.45125 15.3971C2.19643 15.3763 1.93238 15.3296 1.67534 15.1987C1.29901 15.0069 0.993053 14.701 0.801307 14.3246C0.670335 14.0676 0.623661 13.8036 0.602841 13.5487C0.58329 13.3094 0.583303 13.0207 0.583319 12.6944L0.58332 8.52124C0.58332 8.49895 0.583303 8.47689 0.583285 8.45505C0.583017 8.11238 0.58279 7.8232 0.650092 7.54287C0.709293 7.29628 0.806936 7.06055 0.939439 6.84432C1.09008 6.5985 1.29472 6.39418 1.53721 6.15207C1.55267 6.13664 1.56828 6.12105 1.58404 6.10529L6.07509 1.61423C6.30577 1.38353 6.50993 1.17935 6.69296 1.02396C6.88787 0.858499 7.10758 0.704797 7.38195 0.615648Z" fill="#99A2AD"/>
</svg>
