<svg width="20" height="20" viewBox="0 0 20 20" fill="none" xmlns="http://www.w3.org/2000/svg">
<path fill-rule="evenodd" clip-rule="evenodd" d="M8.95841 2.91666C5.62169 2.91666 2.91675 5.62161 2.91675 8.95833C2.91675 12.2951 5.62169 15 8.95841 15C10.3565 15 11.6436 14.5251 12.6673 13.7279L16.2197 17.2803C16.5126 17.5732 16.9875 17.5732 17.2804 17.2803C17.5733 16.9874 17.5733 16.5126 17.2804 16.2197L13.728 12.6673C14.5252 11.6435 15.0001 10.3564 15.0001 8.95833C15.0001 5.62161 12.2951 2.91666 8.95841 2.91666ZM8.95841 4.41666C6.45012 4.41666 4.41675 6.45004 4.41675 8.95833C4.41675 11.4666 6.45012 13.5 8.95841 13.5C11.4667 13.5 13.5001 11.4666 13.5001 8.95833C13.5001 6.45004 11.4667 4.41666 8.95841 4.41666Z" fill="#99A2AD"/>
</svg>
