<svg width="18" height="18" viewBox="0 0 18 18" fill="none" xmlns="http://www.w3.org/2000/svg">
<path d="M8.99996 15.7544C12.7303 15.7544 15.7543 12.7303 15.7543 8.99999C15.7543 5.26965 12.7303 2.2456 8.99996 2.2456C5.26962 2.2456 2.24557 5.26965 2.24557 8.99999C2.24557 12.7303 5.26962 15.7544 8.99996 15.7544ZM8.99996 17.3333C4.39759 17.3333 0.666626 13.6024 0.666626 8.99999C0.666626 4.39762 4.39759 0.666656 8.99996 0.666656C13.6023 0.666656 17.3333 4.39762 17.3333 8.99999C17.3333 13.6024 13.6023 17.3333 8.99996 17.3333ZM8.99996 7.02309C8.39438 7.02309 7.90347 6.53218 7.90347 5.9266C7.90347 5.32103 8.39438 4.83011 8.99996 4.83011C9.60554 4.83011 10.0965 5.32103 10.0965 5.9266C10.0965 6.53218 9.60554 7.02309 8.99996 7.02309ZM8.21049 9.37488C8.21049 8.92383 8.56395 8.55818 8.99996 8.55818C9.43597 8.55818 9.78943 8.92383 9.78943 9.37488V12.566C9.78943 13.0171 9.43597 13.3827 8.99996 13.3827C8.56395 13.3827 8.21049 13.0171 8.21049 12.566V9.37488Z" fill="#00D359"/>
</svg>
