<svg width="16" height="16" viewBox="0 0 16 16" fill="none" xmlns="http://www.w3.org/2000/svg">
<path fill-rule="evenodd" clip-rule="evenodd" d="M9.88274 4.23164L2.35183 11.7626C2.17992 11.9345 2.08334 12.1676 2.08334 12.4108L2.08334 13.8333C2.08334 13.8794 2.12065 13.9167 2.16668 13.9167H3.58926C3.83238 13.9167 4.06554 13.8201 4.23744 13.6482L11.7684 6.11726L9.88274 4.23164ZM10.9434 3.17098L12.829 5.0566L13.7718 4.11379C13.9671 3.91853 13.9671 3.60195 13.7718 3.40668L12.5933 2.22817C12.3981 2.03291 12.0815 2.03291 11.8862 2.22817L10.9434 3.17098ZM1.29117 10.7019L10.8256 1.16751C11.6066 0.386464 12.8729 0.386464 13.654 1.16751L14.8325 2.34602C15.6135 3.12707 15.6135 4.3934 14.8325 5.17445L5.29811 14.7089C4.84489 15.1621 4.2302 15.4167 3.58926 15.4167L2.16668 15.4167C1.29223 15.4167 0.583344 14.7078 0.583344 13.8333L0.583344 12.4108C0.583343 11.7698 0.837955 11.1551 1.29117 10.7019Z" fill="#99A2AD"/>
</svg>
