<svg width="18" height="14" viewBox="0 0 18 14" fill="none" xmlns="http://www.w3.org/2000/svg">
<path fill-rule="evenodd" clip-rule="evenodd" d="M5.5 0.416672H5.46858H5.46856C4.79519 0.416664 4.24449 0.416657 3.79693 0.453224C3.33367 0.491074 2.91527 0.571809 2.52453 0.770902C1.913 1.08249 1.41582 1.57968 1.10423 2.1912C0.905137 2.58194 0.824402 3.00034 0.786552 3.4636C0.749985 3.91116 0.749992 4.46187 0.75 5.13524V5.13526V5.16667V8.83334V8.86476V8.86477C0.749992 9.53815 0.749985 10.0888 0.786552 10.5364C0.824402 10.9997 0.905137 11.4181 1.10423 11.8088C1.41582 12.4203 1.913 12.9175 2.52453 13.2291C2.91527 13.4282 3.33367 13.5089 3.79693 13.5468C4.2445 13.5834 4.7952 13.5833 5.46858 13.5833H5.5H12.5H12.5314C13.2048 13.5833 13.7555 13.5834 14.2031 13.5468C14.6663 13.5089 15.0847 13.4282 15.4755 13.2291C16.087 12.9175 16.5842 12.4203 16.8958 11.8088C17.0949 11.4181 17.1756 10.9997 17.2134 10.5364C17.25 10.0888 17.25 9.53814 17.25 8.86476V8.83334V5.16667V5.13525C17.25 4.46188 17.25 3.91117 17.2134 3.4636C17.1756 3.00034 17.0949 2.58194 16.8958 2.1912C16.5842 1.57968 16.087 1.08249 15.4755 0.770902C15.0847 0.571809 14.6663 0.491074 14.2031 0.453224C13.7555 0.416657 13.2048 0.416664 12.5314 0.416672H12.5314H12.5H5.5ZM3.48386 2.01014C3.59684 1.98402 3.73733 1.96309 3.91908 1.94824C4.29833 1.91726 4.78756 1.91667 5.5 1.91667H12.5C13.2124 1.91667 13.7017 1.91726 14.0809 1.94824C14.2627 1.96309 14.4032 1.98402 14.5161 2.01014L11.1753 4.93341C10.6938 5.35473 10.3641 5.64253 10.0895 5.84781C9.82253 6.04749 9.65268 6.13379 9.50573 6.17725C9.17564 6.27486 8.82436 6.27486 8.49427 6.17725C8.34732 6.13379 8.17747 6.04749 7.91046 5.84781C7.63594 5.64253 7.30625 5.35473 6.82474 4.93341L3.48386 2.01014ZM2.37533 3.03333C2.33405 3.16307 2.30204 3.3352 2.28157 3.58575C2.25058 3.96501 2.25 4.45423 2.25 5.16667V8.83334C2.25 9.54578 2.25058 10.035 2.28157 10.4143C2.31184 10.7848 2.36735 10.9838 2.44074 11.1278C2.60852 11.4571 2.87623 11.7248 3.20552 11.8926C3.34956 11.966 3.54858 12.0215 3.91908 12.0518C4.29833 12.0828 4.78756 12.0833 5.5 12.0833H12.5C13.2124 12.0833 13.7017 12.0828 14.0809 12.0518C14.4514 12.0215 14.6504 11.966 14.7945 11.8926C15.1238 11.7248 15.3915 11.4571 15.5593 11.1278C15.6327 10.9838 15.6882 10.7848 15.7184 10.4143C15.7494 10.035 15.75 9.54578 15.75 8.83334V5.16667C15.75 4.45423 15.7494 3.96501 15.7184 3.58575C15.698 3.3352 15.6659 3.16307 15.6247 3.03333L12.163 6.06228L12.1412 6.08139C11.6869 6.4789 11.314 6.80517 10.9879 7.04908C10.649 7.30249 10.3163 7.50175 9.93111 7.61567C9.32338 7.79539 8.67662 7.79539 8.06889 7.61567C7.68369 7.50175 7.35103 7.30249 7.01215 7.04908C6.686 6.80518 6.31314 6.47892 5.85887 6.08143L5.83699 6.06228L2.37533 3.03333Z" fill="black"/>
</svg>
