<svg width="20" height="21" viewBox="0 0 20 21" fill="none" xmlns="http://www.w3.org/2000/svg">
<circle cx="10" cy="10.2968" r="10" fill="#FFDC00"/>
<path fill-rule="evenodd" clip-rule="evenodd" d="M10 5.29675C9.44772 5.29675 9 5.74447 9 6.29675V9.29675H6C5.44772 9.29675 5 9.74447 5 10.2968C5 10.849 5.44772 11.2968 6 11.2968H9V14.2968C9 14.849 9.44772 15.2968 10 15.2968C10.5523 15.2968 11 14.849 11 14.2968V11.2968H14C14.5523 11.2968 15 10.849 15 10.2968C15 9.74447 14.5523 9.29675 14 9.29675H11V6.29675C11 5.74447 10.5523 5.29675 10 5.29675Z" fill="#161616"/>
</svg>
