<svg width="16" height="16" viewBox="0 0 16 16" fill="none" xmlns="http://www.w3.org/2000/svg">
<path d="M1.74588 1.43599C-0.687854 4.11365 0.612075 8.25718 4.18605 11.8476C7.68398 15.3617 12.0143 16.6755 14.5768 14.2912C15.9788 12.9868 15.7716 10.6768 14.0397 9.13302L13.8815 8.99858C12.2747 7.69748 9.94246 7.69335 8.51798 8.97601L8.44501 9.04452L8.40359 9.00966C8.24791 8.87702 8.04537 8.69229 7.80072 8.44905L7.55316 8.19742L7.29791 7.92556C7.22137 7.84174 7.15325 7.7648 7.09322 7.695L6.99029 7.57305L6.93235 7.63573C8.33836 6.22324 8.35163 3.70757 6.9372 2.0176C5.36646 0.140862 2.98392 0.0738733 1.74588 1.43599ZM5.78849 2.97916C6.77101 4.15307 6.66118 5.7847 5.87071 6.57881L5.74745 6.69508C5.223 7.16686 4.71102 7.44501 6.60685 9.37294C8.65235 11.4531 8.90739 10.7234 9.44026 10.1655C10.2772 9.32465 11.9163 9.24705 13.043 10.2514C14.2889 11.362 14.154 12.6384 13.5564 13.1944C11.7075 14.9147 8.16671 13.7232 5.24769 10.7907C2.32867 7.85823 1.03321 4.44735 2.85438 2.44365C3.27716 1.97849 4.60303 1.56276 5.78849 2.97916Z" fill="black"/>
</svg>
