<svg width="16" height="16" viewBox="0 0 16 16" fill="none" xmlns="http://www.w3.org/2000/svg">
<path fill-rule="evenodd" clip-rule="evenodd" d="M9.24114 1.57754C10.6737 0.145012 12.9963 0.145011 14.4288 1.57754C15.8613 3.01007 15.8613 5.33265 14.4288 6.76518L13.5358 7.65812C13.2428 7.95114 12.7677 7.95114 12.4747 7.65812C12.1817 7.3651 12.1817 6.89003 12.4747 6.59701L13.3677 5.70407C14.2142 4.85758 14.2142 3.48514 13.3677 2.63865C12.5212 1.79215 11.1487 1.79215 10.3022 2.63865L7.35472 5.58617C6.50823 6.43266 6.50823 7.8051 7.35472 8.6516C7.64774 8.94461 7.64774 9.41969 7.35472 9.7127C7.0617 10.0057 6.58663 10.0057 6.29361 9.7127C4.86108 8.28018 4.86108 5.95759 6.29361 4.52506L9.24114 1.57754ZM8.65163 6.29358C8.94464 6.00056 9.41972 6.00056 9.71273 6.29358C11.1453 7.72611 11.1453 10.0487 9.71273 11.4812L6.76521 14.4287C5.33268 15.8613 3.0101 15.8613 1.57757 14.4287C0.145042 12.9962 0.145042 10.6736 1.57757 9.24111L2.51241 8.30627C2.80542 8.01325 3.2805 8.01325 3.57351 8.30627C3.86653 8.59929 3.86653 9.07436 3.57351 9.36738L2.63868 10.3022C1.79218 11.1487 1.79218 12.5211 2.63868 13.3676C3.48517 14.2141 4.85761 14.2141 5.7041 13.3676L8.65163 10.4201C9.49812 9.57362 9.49812 8.20118 8.65163 7.35469C8.35861 7.06167 8.35861 6.5866 8.65163 6.29358Z" fill="#99A2AD"/>
</svg>
