<svg width="14" height="16" viewBox="0 0 14 16" fill="none" xmlns="http://www.w3.org/2000/svg">
<path d="M9.37496 4.625C9.37496 3.31265 8.31231 2.25 6.99996 2.25C5.68761 2.25 4.62496 3.31265 4.62496 4.625C4.62496 5.93735 5.68761 7 6.99996 7C8.31231 7 9.37496 5.93735 9.37496 4.625ZM10.875 4.625C10.875 6.76578 9.14074 8.5 6.99996 8.5C4.85918 8.5 3.12496 6.76578 3.12496 4.625C3.12496 2.48422 4.85918 0.75 6.99996 0.75C9.14074 0.75 10.875 2.48422 10.875 4.625ZM1.91663 13.3571C1.91663 13.9978 1.84099 13.9167 2.19604 13.9167H11.8039C12.1589 13.9167 12.0833 13.9978 12.0833 13.3571C12.0833 11.78 9.76813 10.8333 6.99996 10.8333C4.23179 10.8333 1.91663 11.78 1.91663 13.3571ZM0.416626 13.3571C0.416626 10.5848 3.47728 9.33333 6.99996 9.33333C10.5226 9.33333 13.5833 10.5848 13.5833 13.3571C13.5833 14.8035 13.012 15.4167 11.8039 15.4167H2.19604C0.987907 15.4167 0.416626 14.8035 0.416626 13.3571Z" fill="#99A2AD"/>
</svg>
