<svg width="18" height="18" viewBox="0 0 18 18" fill="none" xmlns="http://www.w3.org/2000/svg">
<path fill-rule="evenodd" clip-rule="evenodd" d="M9.00195 5.80003C8.06307 5.80003 7.30195 6.56115 7.30195 7.50003C7.30195 8.43891 8.06307 9.20003 9.00195 9.20003C9.94084 9.20003 10.702 8.43891 10.702 7.50003C10.702 6.56115 9.94084 5.80003 9.00195 5.80003ZM5.50195 7.50003C5.50195 5.56703 7.06896 4.00003 9.00195 4.00003C10.9349 4.00003 12.502 5.56703 12.502 7.50003C12.502 9.43303 10.9349 11 9.00195 11C7.06896 11 5.50195 9.43303 5.50195 7.50003Z" fill="#99A2AD"/>
<path fill-rule="evenodd" clip-rule="evenodd" d="M5.2297 0.100006C3.66005 0.100006 2.91039 0.226669 2.14824 0.634272C1.49871 0.981645 0.983568 1.49678 0.636194 2.14631C0.228592 2.90846 0.101929 3.65813 0.101929 5.22778V12.7722C0.101929 14.3419 0.228592 15.0915 0.636194 15.8537C0.983567 16.5032 1.4987 17.0184 2.14824 17.3657C2.91039 17.7733 3.66005 17.9 5.2297 17.9H12.7742C14.3438 17.9 15.0935 17.7733 15.8556 17.3657C16.5052 17.0184 17.0203 16.5032 17.3677 15.8537C17.7753 15.0915 17.9019 14.3419 17.9019 12.7722V5.22778C17.9019 3.65813 17.7753 2.90847 17.3677 2.14631C17.0203 1.49678 16.5052 0.981645 15.8556 0.634272C15.0935 0.226669 14.3438 0.100006 12.7742 0.100006H5.2297ZM5.2297 1.90001C3.74303 1.90001 3.3591 2.02795 2.99712 2.22154C2.66127 2.40115 2.40307 2.65934 2.22346 2.99519C2.02987 3.35717 1.90193 3.74111 1.90193 5.22778V12.7722C1.90193 14.2589 2.02987 14.6428 2.22346 15.0048C2.29275 15.1344 2.37373 15.2524 2.46636 15.3588C4.09138 13.6018 6.41783 12.5 9.00192 12.5C11.586 12.5 13.9125 13.6018 15.5375 15.3588C15.6301 15.2524 15.7111 15.1344 15.7804 15.0048C15.974 14.6428 16.1019 14.2589 16.1019 12.7722V5.22778C16.1019 3.74111 15.974 3.35717 15.7804 2.99519C15.6008 2.65934 15.3426 2.40115 15.0067 2.22154C14.6448 2.02795 14.2608 1.90001 12.7742 1.90001H5.2297ZM9.00195 4.00003C7.06896 4.00003 5.50195 5.56703 5.50195 7.50003C5.50195 9.43303 7.06896 11 9.00195 11C10.9349 11 12.502 9.43303 12.502 7.50003C12.502 5.56703 10.9349 4.00003 9.00195 4.00003ZM7.30195 7.50003C7.30195 6.56115 8.06307 5.80003 9.00195 5.80003C9.94084 5.80003 10.702 6.56115 10.702 7.50003C10.702 8.43891 9.94084 9.20003 9.00195 9.20003C8.06307 9.20003 7.30195 8.43891 7.30195 7.50003ZM5.2297 16.1H12.7742C13.1465 16.1 13.4497 16.092 13.7006 16.0769C12.4482 14.9704 10.8032 14.3 9.00192 14.3C7.20062 14.3 5.55567 14.9704 4.30321 16.0769C4.55419 16.092 4.85736 16.1 5.2297 16.1Z" fill="#99A2AD"/>
</svg>
