<svg width="20" height="14" viewBox="0 0 20 14" fill="none" xmlns="http://www.w3.org/2000/svg">
<path fill-rule="evenodd" clip-rule="evenodd" d="M7.08329 3.74998C7.08329 2.13915 8.38913 0.833313 9.99996 0.833313C11.6108 0.833313 12.9166 2.13915 12.9166 3.74998C12.9166 5.36081 11.6108 6.66665 9.99996 6.66665C8.38913 6.66665 7.08329 5.36081 7.08329 3.74998ZM9.99996 5.16665C9.21756 5.16665 8.58329 4.53238 8.58329 3.74998C8.58329 2.96758 9.21756 2.33331 9.99996 2.33331C10.7824 2.33331 11.4166 2.96758 11.4166 3.74998C11.4166 4.53238 10.7824 5.16665 9.99996 5.16665Z" fill="#99A2AD"/>
<path fill-rule="evenodd" clip-rule="evenodd" d="M10.0003 7.9167C8.74693 7.9167 7.56232 8.21137 6.66521 8.76252C5.76697 9.31438 5.08361 10.1811 5.08361 11.2956C5.08361 11.9701 5.31567 12.5726 5.79295 12.9979C6.2581 13.4125 6.87116 13.5834 7.50028 13.5834H12.5003C13.1294 13.5834 13.7425 13.4125 14.2076 12.9979C14.6849 12.5726 14.9169 11.9701 14.9169 11.2956C14.9169 10.1811 14.2336 9.31438 13.3353 8.76252C12.4382 8.21137 11.2536 7.9167 10.0003 7.9167ZM6.58361 11.2956C6.58361 10.8645 6.83808 10.4168 7.45042 10.0406C8.06389 9.66369 8.96262 9.4167 10.0003 9.4167C11.0379 9.4167 11.9367 9.66369 12.5501 10.0406C13.1625 10.4168 13.4169 10.8645 13.4169 11.2956C13.4169 11.6171 13.3157 11.7836 13.2096 11.8781C13.0914 11.9834 12.8712 12.0834 12.5003 12.0834H7.50028C7.1294 12.0834 6.90913 11.9834 6.79094 11.8781C6.68489 11.7836 6.58361 11.6171 6.58361 11.2956Z" fill="#99A2AD"/>
<path d="M4.91947 8.41667C4.91947 8.00245 4.58369 7.66667 4.16947 7.66667C2.49718 7.66667 0.877808 8.72998 0.877808 10.4643C0.877808 11.5168 1.60294 12.75 3.05039 12.75C3.46461 12.75 3.80039 12.4142 3.80039 12C3.80039 11.5858 3.46461 11.25 3.05039 11.25C2.82378 11.25 2.67554 11.1631 2.57095 11.0383C2.45441 10.8993 2.37781 10.691 2.37781 10.4643C2.37781 9.85512 2.99388 9.16667 4.16947 9.16667C4.58369 9.16667 4.91947 8.83088 4.91947 8.41667Z" fill="#99A2AD"/>
<path d="M5.26207 1.54921C5.67212 1.49062 6.05202 1.77554 6.1106 2.18559C6.16919 2.59564 5.88427 2.97554 5.47422 3.03413C4.9676 3.10651 4.5835 3.53966 4.5835 4.05537C4.5835 4.62141 5.046 5.08727 5.62516 5.08727C6.03938 5.08727 6.37516 5.42305 6.37516 5.83727C6.37516 6.25148 6.03938 6.58727 5.62516 6.58727C4.22531 6.58727 3.0835 5.45756 3.0835 4.05537C3.0835 2.77644 4.03319 1.72477 5.26207 1.54921Z" fill="#99A2AD"/>
<path d="M15.0804 8.41667C15.0804 8.00245 15.4162 7.66667 15.8304 7.66667C17.5027 7.66667 19.1221 8.72998 19.1221 10.4643C19.1221 11.5168 18.397 12.75 16.9495 12.75C16.5353 12.75 16.1995 12.4142 16.1995 12C16.1995 11.5858 16.5353 11.25 16.9495 11.25C17.1761 11.25 17.3244 11.1631 17.429 11.0383C17.5455 10.8993 17.6221 10.691 17.6221 10.4643C17.6221 9.85512 17.006 9.16667 15.8304 9.16667C15.4162 9.16667 15.0804 8.83088 15.0804 8.41667Z" fill="#99A2AD"/>
<path d="M14.7383 1.54921C14.3282 1.49062 13.9483 1.77554 13.8897 2.18559C13.8311 2.59564 14.1161 2.97554 14.5261 3.03413C15.0327 3.10651 15.4168 3.53966 15.4168 4.05537C15.4168 4.62141 14.9543 5.08727 14.3752 5.08727C13.9609 5.08727 13.6252 5.42305 13.6252 5.83727C13.6252 6.25148 13.9609 6.58727 14.3752 6.58727C15.775 6.58727 16.9168 5.45756 16.9168 4.05537C16.9168 2.77644 15.9671 1.72477 14.7383 1.54921Z" fill="#99A2AD"/>
</svg>
